<mxfile host="app.diagrams.net" modified="2023-05-18T13:22:28.469Z" agent="Mozilla/5.0 (Windows NT 10.0; Win64; x64; rv:109.0) Gecko/20100101 Firefox/111.0" etag="9nBwDaPHvtsztseHy-dP" version="21.3.2" type="github">
  <diagram name="第 1 页" id="1cke0UZZ7F5wLN-n_vno">
    <mxGraphModel dx="956" dy="596" grid="1" gridSize="10" guides="1" tooltips="1" connect="1" arrows="1" fold="1" page="1" pageScale="1" pageWidth="827" pageHeight="1169" math="0" shadow="0">
      <root>
        <mxCell id="0" />
        <mxCell id="1" parent="0" />
      </root>
    </mxGraphModel>
  </diagram>
</mxfile>
